# 3ds Max Wavefront OBJ Exporter v0.97b - (c)2007 guruware
# File Created: 23.09.2015 21:41:06

mtllib 3d-model.mtl

#
# object Layer0_001
#

v  -225.0836 0.0000 156.9019
v  -225.0836 0.0000 -153.0981
v  84.9164 0.0000 -153.0981
v  84.9164 0.0000 156.9019
v  -225.0836 30.0000 -153.0981
v  -225.0836 30.0000 156.9019
v  84.9164 30.0000 156.9019
v  84.9164 30.0000 -153.0981
v  289.3745 1491.4733 16.9018
v  289.3745 1461.4733 16.9018
v  289.3745 1461.4733 -13.0981
v  289.3745 1491.4733 -13.0981
v  328.6477 1469.0638 16.9018
v  328.6477 1469.0638 -13.0981
v  -118.4026 1544.0629 -13.0981
v  -118.4026 1544.0629 16.9018
v  -147.1859 1639.8309 16.9018
v  -147.1859 1639.8309 -13.0981
v  -130.8106 1639.8309 16.9018
v  -130.8106 1639.8309 -13.0981
v  -104.9057 1553.6396 16.9018
v  -104.9057 1553.6396 -13.0981
v  -42.3409 1603.4958 16.9018
v  -42.3409 1603.4958 -13.0981
v  -29.8768 1587.8547 16.9018
v  -29.8768 1587.8547 -13.0981
v  -147.1859 1494.3743 16.9018
v  -147.1859 1494.3743 -13.0981
v  281.4886 1497.6226 16.9018
v  312.2350 1537.0518 16.9018
v  312.2350 1537.0518 -13.0981
v  281.4886 1497.6226 -13.0981
v  320.1208 1530.9025 16.9018
v  320.1208 1530.9025 -13.0981
v  227.9686 1526.8934 16.9018
v  227.9686 1496.8934 16.9018
v  227.9686 1496.8934 -13.0981
v  227.9686 1526.8934 -13.0981
v  211.7938 1449.5819 16.9018
v  211.7938 1449.5819 -13.0981
v  328.6477 1459.0640 16.9018
v  328.6477 1459.0640 -13.0981
v  132.2817 1421.1108 16.9018
v  132.2817 1421.1108 -13.0981
v  230.4945 1371.5706 16.9018
v  230.4945 1371.5706 -13.0981
v  230.4945 1361.5704 16.9018
v  230.4945 1361.5704 -13.0981
v  -35.9120 1278.7402 16.9018
v  -35.9120 1278.7402 -13.0981
v  123.3533 1415.6145 -13.0981
v  123.3533 1415.6145 16.9018
v  -11.9586 30.0000 16.9018
v  -11.9586 30.0000 -13.0981
v  -130.7238 30.0000 16.9018
v  -130.7238 30.0000 -13.0981
v  -95.9120 1278.7402 16.9018
v  -95.9120 1278.7402 -13.0981
v  -165.9083 1380.9973 16.9018
v  -165.9083 1380.9973 -13.0981
v  -147.1859 1380.2024 16.9018
v  -147.1859 1380.2024 -13.0981
v  -65.9120 1278.7402 16.9018
v  -65.9120 1278.7402 -13.0981
v  131.4918 1436.8661 16.9018
v  131.4918 1436.8661 -13.0981
v  200.2198 1450.1497 16.9018
v  200.2198 1450.1497 -13.0981
v  217.9686 1496.8934 16.9018
v  217.9686 1496.8934 -13.0981
v  280.5217 1462.8655 16.9018
v  280.5217 1462.8655 -13.0981
v  271.4886 1491.4733 16.9018
v  271.4886 1491.4733 -13.0981
v  271.4886 1578.1030 16.9018
v  271.4886 1578.1030 -13.0981
v  281.4886 1578.1030 16.9018
v  281.4886 1578.1030 -13.0981
v  -165.9083 1490.9974 16.9018
v  -165.9083 1490.9974 -13.0981
v  -275.6981 1577.8662 16.9018
v  -275.6981 1577.8662 -13.0981
v  -328.6478 1577.8662 16.9018
v  -328.6478 1577.8662 -13.0981
v  217.9686 1526.8934 16.9018
v  217.9686 1526.8934 -13.0981
v  -265.6981 1597.8663 -13.0981
v  -265.6981 1597.8663 16.9018
v  -155.9083 1510.9974 16.9018
v  -155.9083 1510.9974 -13.0981
v  -328.6478 1597.8663 16.9018
v  -328.6478 1597.8663 -13.0981
v  -275.6981 1597.8663 16.9018
v  -275.6981 1597.8663 -13.0981
v  -275.6981 1639.8309 16.9018
v  -275.6981 1639.8309 -13.0981
v  -265.6981 1639.8309 16.9018
v  -265.6981 1639.8309 -13.0981
v  -75.9120 1443.3164 -116.9019
v  -75.9120 1483.3164 -116.9019
v  -75.9120 1483.3164 -126.9019
v  -75.9120 1423.3164 -118.1078
v  -75.9120 1437.6337 -126.9019
v  -75.9120 1423.3164 -156.9018
v  -75.9120 1437.6337 -156.9018
v  -75.9120 1386.8762 -91.6498
v  -75.9120 1386.8762 -75.9225
v  -75.9120 1316.8763 -75.9225
v  -75.9120 1304.7644 -91.6498
v  -75.9120 1308.5803 -69.8992
v  -75.9120 1212.3566 -13.0981
v  -75.9120 1238.7689 -13.0981
v  -55.9120 1437.6337 -126.9019
v  -55.9120 1423.3164 -118.1078
v  -55.9120 1423.3164 -156.9018
v  -55.9120 1437.6337 -156.9018
v  -55.9120 1483.3164 -126.9019
v  -55.9120 1483.3164 -116.9019
v  -55.9120 1443.3164 -116.9019
v  -55.9120 1386.8762 -91.6498
v  -55.9120 1386.8762 -75.9225
v  -55.9120 1304.7644 -91.6498
v  -55.9120 1316.8763 -75.9225
v  -55.9120 1308.5803 -69.8992
v  -55.9120 1238.7689 -13.0981
v  -55.9120 1212.3566 -13.0981
v  -75.9120 1398.2618 121.2865
v  -75.9120 1418.2617 121.2865
v  -75.9120 1418.2617 111.2865
v  -75.9120 1388.2617 121.2865
v  -75.9120 1378.2618 121.2865
v  -75.9120 1383.5409 111.2865
v  -75.9120 1348.6897 80.9692
v  -75.9120 1353.9688 70.9692
v  -75.9120 1308.6896 80.9692
v  -75.9120 1311.2120 70.9692
v  -75.9120 1223.4327 16.9018
v  -75.9120 1239.2626 16.9018
v  -75.9120 1388.2617 141.2865
v  -75.9120 1398.2618 141.2865
v  -55.9120 1398.2618 141.2865
v  -55.9120 1388.2617 141.2865
v  -55.9120 1388.2617 121.2865
v  -55.9120 1398.2618 121.2865
v  -55.9120 1383.5409 111.2865
v  -55.9120 1348.6897 80.9692
v  -55.9120 1378.2618 121.2865
v  -55.9120 1353.9688 70.9692
v  -55.9120 1311.2120 70.9692
v  -55.9120 1308.6896 80.9692
v  -55.9120 1223.4327 16.9018
v  -55.9120 1239.2626 16.9018
v  -55.9120 1418.2617 121.2865
v  -55.9120 1418.2617 111.2865
# 154 vertices

vn 0.0000 -1.0000 -0.0000
vn 0.0000 1.0000 -0.0000
vn -1.0000 0.0000 -0.0000
vn 0.0000 0.0000 -1.0000
vn 1.0000 0.0000 -0.0000
vn 0.0000 0.0000 1.0000
vn -0.1898 0.9818 0.0000
vn -0.9577 -0.2878 0.0000
vn 0.9577 0.2878 -0.0000
vn -0.6232 0.7821 0.0000
vn 0.7821 0.6232 -0.0000
vn 0.6232 -0.7821 -0.0000
vn -0.7886 0.6149 0.0000
vn 0.6149 0.7886 -0.0000
vn 0.7886 -0.6149 -0.0000
vn 0.9462 -0.3235 -0.0000
vn 0.1898 -0.9818 -0.0000
vn 0.4504 0.8928 0.0000
vn 0.6518 -0.7584 -0.0000
vn -0.4504 -0.8928 -0.0000
vn 0.9998 0.0192 -0.0000
vn -0.9996 0.0279 0.0000
vn -0.8252 -0.5649 0.0000
vn 0.7805 0.6252 -0.0000
vn -0.6252 0.7805 0.0000
vn -0.9349 0.3550 0.0000
vn -0.9536 -0.3011 0.0000
vn -0.6205 -0.7842 0.0000
vn 0.6205 0.7842 -0.0000
vn -0.6613 0.7501 0.0000
vn 0.0000 -0.5875 -0.8092
vn 0.0000 -0.6477 -0.7619
vn 0.0000 0.6311 0.7757
vn 0.0000 0.5875 0.8092
vn -0.0000 0.6007 -0.7994
vn -0.0000 0.8063 -0.5914
vn 0.0000 -0.8063 0.5914
vn 0.0000 -0.6007 0.7994
# 38 vertex normals

vt -1.0051 0.5429 0.0000
vt -1.0051 0.9225 0.0000
vt -1.3625 0.9225 0.0000
vt -1.3625 0.5429 0.0000
vt 1.0051 0.9225 0.0000
vt 1.0051 0.5429 0.0000
vt 1.3625 0.5429 0.0000
vt 1.3625 0.9225 0.0000
vt -0.5111 -0.0000 0.0000
vt -0.5111 0.0367 0.0000
vt -0.8685 0.0367 0.0000
vt -0.8685 -0.0000 0.0000
vt -1.3625 -0.0000 0.0000
vt -1.0051 -0.0000 0.0000
vt -1.0051 0.0367 0.0000
vt -1.3625 0.0367 0.0000
vt 0.5111 0.0367 0.0000
vt 0.5111 -0.0000 0.0000
vt 0.8685 -0.0000 0.0000
vt 0.8685 0.0367 0.0000
vt 1.0051 -0.0000 0.0000
vt 1.3625 -0.0000 0.0000
vt 1.3625 0.0367 0.0000
vt 1.0051 0.0367 0.0000
vt 0.6725 1.8265 0.0000
vt 0.6725 1.7898 0.0000
vt 0.7071 1.7898 0.0000
vt 0.7071 1.8265 0.0000
vt -0.7071 2.0065 0.0000
vt -0.6725 2.0065 0.0000
vt -0.6725 2.0555 0.0000
vt -0.7071 2.0555 0.0000
vt -0.7071 1.4660 0.0000
vt -0.6725 1.4660 0.0000
vt -0.6725 1.5884 0.0000
vt -0.7071 1.5884 0.0000
vt 1.0949 0.7511 0.0000
vt 1.0949 0.7143 0.0000
vt 1.1138 0.7143 0.0000
vt 1.1138 0.7511 0.0000
vt 0.6725 1.5827 0.0000
vt 0.6725 1.4724 0.0000
vt 0.7071 1.4724 0.0000
vt 0.7071 1.5827 0.0000
vt -0.7071 2.1358 0.0000
vt -0.6725 2.1358 0.0000
vt -0.6725 2.2338 0.0000
vt -0.7071 2.2338 0.0000
vt 0.6725 0.7309 0.0000
vt 0.6725 0.7064 0.0000
vt 0.7071 0.7064 0.0000
vt 0.7071 0.7309 0.0000
vt 0.6725 2.0501 0.0000
vt 0.7071 2.0501 0.0000
vt 0.7071 2.2338 0.0000
vt 0.6725 2.2338 0.0000
vt -0.6725 2.4843 0.0000
vt -0.6725 2.5455 0.0000
vt -0.7071 2.5455 0.0000
vt -0.7071 2.4843 0.0000
vt 0.7071 -0.2034 0.0000
vt 0.6725 -0.2034 0.0000
vt 0.6725 -0.2156 0.0000
vt 0.7071 -0.2156 0.0000
vt 0.7071 2.5455 0.0000
vt 0.6725 2.5455 0.0000
vt 0.6725 2.4843 0.0000
vt 0.7071 2.4843 0.0000
vt 0.6725 1.8699 0.0000
vt 0.6725 1.8331 0.0000
vt 0.7071 1.8331 0.0000
vt 0.7071 1.8699 0.0000
vt 0.6725 2.2594 0.0000
vt 0.6725 2.1982 0.0000
vt 0.7071 2.1982 0.0000
vt 0.7071 2.2594 0.0000
vt 0.6725 1.7991 0.0000
vt 0.6725 1.7868 0.0000
vt 0.7071 1.7868 0.0000
vt 0.7071 1.7991 0.0000
vt 0.6725 1.8082 0.0000
vt 0.7071 1.8082 0.0000
vt 0.7071 2.0531 0.0000
vt 0.6725 2.0531 0.0000
vt 0.7071 -0.5602 0.0000
vt 0.6725 -0.5602 0.0000
vt 0.6725 -0.6949 0.0000
vt 0.7071 -0.6949 0.0000
vt 0.6725 1.6797 0.0000
vt 0.6725 1.6674 0.0000
vt 0.7071 1.6674 0.0000
vt 0.7071 1.6797 0.0000
vt 0.6725 2.0061 0.0000
vt 0.7071 2.0061 0.0000
vt 0.7071 2.2633 0.0000
vt 0.6725 2.2633 0.0000
vt -0.6725 -0.5535 0.0000
vt -0.7071 -0.5535 0.0000
vt -0.7071 -0.7005 0.0000
vt -0.6725 -0.7005 0.0000
vt 0.7071 1.5408 0.0000
vt 0.6725 1.5408 0.0000
vt 0.6725 0.0113 0.0000
vt 0.7071 0.0113 0.0000
vt -1.1139 0.7143 0.0000
vt -1.1139 0.7511 0.0000
vt -1.2508 0.7511 0.0000
vt -1.2508 0.7143 0.0000
vt -0.6725 0.0697 0.0000
vt -0.6725 1.5995 0.0000
vt -0.7071 1.5995 0.0000
vt -0.7071 0.0697 0.0000
vt -0.6725 0.5998 0.0000
vt -0.6725 0.7516 0.0000
vt -0.7071 0.7516 0.0000
vt -0.7071 0.5998 0.0000
vt 0.6725 1.8301 0.0000
vt 0.6725 1.6902 0.0000
vt 0.7071 1.6902 0.0000
vt 0.7071 1.8301 0.0000
vt 0.6725 0.5921 0.0000
vt 0.6725 0.4329 0.0000
vt 0.7071 0.4329 0.0000
vt 0.7071 0.5921 0.0000
vt -0.7071 1.9645 0.0000
vt -0.6725 1.9645 0.0000
vt -0.6725 2.2742 0.0000
vt -0.7071 2.2742 0.0000
vt -0.7071 1.8109 0.0000
vt -0.6725 1.8109 0.0000
vt -0.6725 1.8967 0.0000
vt -0.7071 1.8967 0.0000
vt -0.6725 2.2241 0.0000
vt -0.6725 2.2854 0.0000
vt -0.7071 2.2854 0.0000
vt -0.7071 2.2241 0.0000
vt -0.7071 1.9104 0.0000
vt -0.6725 1.9104 0.0000
vt -0.6725 1.9962 0.0000
vt -0.7071 1.9962 0.0000
vt -0.7071 1.2004 0.0000
vt -0.6725 1.2004 0.0000
vt -0.6725 1.2371 0.0000
vt -0.7071 1.2371 0.0000
vt -0.6725 1.8265 0.0000
vt -0.6725 1.9326 0.0000
vt -0.7071 1.9326 0.0000
vt -0.7071 1.8265 0.0000
vt 1.5776 0.7511 0.0000
vt 1.5776 0.7143 0.0000
vt 1.5891 0.7143 0.0000
vt 1.5891 0.7511 0.0000
vt 0.6725 1.9326 0.0000
vt 0.7071 1.9326 0.0000
vt -0.6725 1.6912 0.0000
vt -0.7071 1.6912 0.0000
vt -0.6725 0.4103 0.0000
vt -0.7071 0.4103 0.0000
vt -0.7071 0.2389 0.0000
vt -0.6725 0.2389 0.0000
vt -0.8857 0.7143 0.0000
vt -0.8857 0.7511 0.0000
vt -0.9468 0.7511 0.0000
vt -0.9468 0.7143 0.0000
vt -0.6725 1.8331 0.0000
vt -0.6725 1.8699 0.0000
vt -0.7071 1.8699 0.0000
vt -0.7071 1.8331 0.0000
vt 1.5159 0.7511 0.0000
vt 1.5159 0.7143 0.0000
vt 1.5274 0.7143 0.0000
vt 1.5274 0.7511 0.0000
vt 0.7071 0.4159 0.0000
vt 0.6725 0.4159 0.0000
vt 0.6725 0.2444 0.0000
vt 0.7071 0.2444 0.0000
vt -0.7071 2.0881 0.0000
vt -0.6725 2.0881 0.0000
vt -0.6725 2.1494 0.0000
vt -0.7071 2.1494 0.0000
vt -0.6725 1.9568 0.0000
vt -0.7071 1.9568 0.0000
vt 0.8857 0.7511 0.0000
vt 0.8857 0.7143 0.0000
vt 0.9468 0.7143 0.0000
vt 0.9468 0.7511 0.0000
vt -0.6725 2.0082 0.0000
vt -0.7071 2.0082 0.0000
vt 0.9583 0.7143 0.0000
vt 0.9583 0.7511 0.0000
vt 0.6725 2.0082 0.0000
vt 0.6725 1.9568 0.0000
vt 0.7071 1.9568 0.0000
vt 0.7071 2.0082 0.0000
vt 1.4068 1.7336 0.0000
vt 1.5303 1.6674 0.0000
vt 1.5303 1.6797 0.0000
vt 1.4171 1.7403 0.0000
vt 1.4162 1.7596 0.0000
vt 1.1886 1.5660 0.0000
vt 1.2232 1.5660 0.0000
vt 1.1540 1.5660 0.0000
vt 1.1139 0.0367 0.0000
vt 1.2508 0.0367 0.0000
vt 1.0949 1.6902 0.0000
vt 1.0733 1.6912 0.0000
vt 1.0949 1.8301 0.0000
vt 1.0733 1.8259 0.0000
vt 0.9468 1.9323 0.0000
vt 1.0849 1.8504 0.0000
vt 1.2302 1.9445 0.0000
vt 1.1281 1.8909 0.0000
vt 1.1437 1.9026 0.0000
vt 1.2158 1.9637 0.0000
vt 1.0949 2.0082 0.0000
vt 1.1138 2.0082 0.0000
vt 0.9583 1.9568 0.0000
vt 0.8857 1.9323 0.0000
vt 0.8857 1.9568 0.0000
vt 0.9468 1.9568 0.0000
vt 0.9583 2.0082 0.0000
vt 0.9468 2.0082 0.0000
vt 1.6435 1.7868 0.0000
vt 1.5088 1.7752 0.0000
vt 1.5982 1.7898 0.0000
vt 1.6435 1.7991 0.0000
vt 1.5880 1.7915 0.0000
vt 1.5982 1.8265 0.0000
vt 1.5776 1.8265 0.0000
vt 1.5891 1.8340 0.0000
vt 1.6337 1.8748 0.0000
vt 1.6246 1.8823 0.0000
vt 1.5776 1.9326 0.0000
vt 1.5891 1.9326 0.0000
vt 1.4954 1.7759 0.0000
vt 1.5274 1.8331 0.0000
vt 1.5159 1.8331 0.0000
vt 1.5274 1.8699 0.0000
vt 1.5159 1.8699 0.0000
vt -1.5088 1.7752 0.0000
vt -1.4162 1.7596 0.0000
vt -1.4954 1.7759 0.0000
vt -1.5274 1.8331 0.0000
vt -1.5159 1.8331 0.0000
vt -1.5159 1.8699 0.0000
vt -1.5274 1.8699 0.0000
vt -1.6435 1.7868 0.0000
vt -1.4171 1.7403 0.0000
vt -1.4068 1.7336 0.0000
vt -1.2232 1.5660 0.0000
vt -1.1886 1.5660 0.0000
vt -1.1540 1.5660 0.0000
vt -1.2508 0.0367 0.0000
vt -1.1139 0.0367 0.0000
vt -1.0733 1.6912 0.0000
vt -1.0949 1.6902 0.0000
vt -1.0949 1.8301 0.0000
vt -1.0733 1.8259 0.0000
vt -0.9468 1.9323 0.0000
vt -1.0849 1.8504 0.0000
vt -0.9583 1.9568 0.0000
vt -0.8857 1.9568 0.0000
vt -0.8857 1.9323 0.0000
vt -0.9468 1.9568 0.0000
vt -0.9468 2.0082 0.0000
vt -0.9583 2.0082 0.0000
vt -1.2302 1.9445 0.0000
vt -1.1281 1.8909 0.0000
vt -1.1437 1.9026 0.0000
vt -1.0949 2.0082 0.0000
vt -1.1138 2.0082 0.0000
vt -1.2158 1.9637 0.0000
vt -1.5303 1.6797 0.0000
vt -1.5303 1.6674 0.0000
vt -1.5982 1.7898 0.0000
vt -1.5880 1.7915 0.0000
vt -1.5982 1.8265 0.0000
vt -1.5776 1.8265 0.0000
vt -1.5891 1.8340 0.0000
vt -1.5776 1.9326 0.0000
vt -1.5891 1.9326 0.0000
vt -1.6337 1.8748 0.0000
vt -1.6246 1.8823 0.0000
vt -1.6435 1.7991 0.0000
vt -0.8267 1.7675 0.0000
vt -0.8267 1.8165 0.0000
vt -0.8383 1.8165 0.0000
vt -0.8281 1.7430 0.0000
vt -0.8383 1.7606 0.0000
vt -0.8728 1.7430 0.0000
vt -0.8728 1.7606 0.0000
vt -0.7976 1.6984 0.0000
vt -0.7795 1.6984 0.0000
vt -0.7795 1.6127 0.0000
vt -0.7976 1.5979 0.0000
vt -0.7725 1.6025 0.0000
vt -0.7071 1.4847 0.0000
vt -0.7071 1.5170 0.0000
vt 0.8383 1.7606 0.0000
vt 0.8281 1.7430 0.0000
vt 0.8728 1.7430 0.0000
vt 0.8728 1.7606 0.0000
vt 0.8383 1.8165 0.0000
vt 0.8267 1.8165 0.0000
vt 0.8267 1.7675 0.0000
vt 0.7976 1.6984 0.0000
vt 0.7795 1.6984 0.0000
vt 0.7976 1.5979 0.0000
vt 0.7795 1.6127 0.0000
vt 0.7725 1.6025 0.0000
vt 0.7071 1.5170 0.0000
vt 0.7071 1.4847 0.0000
vt -1.2002 1.7606 0.0000
vt -1.1771 1.7606 0.0000
vt -1.1771 1.8165 0.0000
vt -1.2002 1.8165 0.0000
vt 1.1771 0.9272 0.0000
vt 1.1771 0.8904 0.0000
vt 1.2002 0.8904 0.0000
vt 1.2002 0.9272 0.0000
vt -1.2002 1.7430 0.0000
vt -1.1771 1.7430 0.0000
vt -1.1771 0.8797 0.0000
vt -1.1771 0.9272 0.0000
vt -1.2002 0.9272 0.0000
vt -1.2002 0.8797 0.0000
vt -1.2002 1.8721 0.0000
vt -1.1771 1.8721 0.0000
vt -1.1771 1.9273 0.0000
vt -1.2002 1.9273 0.0000
vt -1.2002 1.5979 0.0000
vt -1.1771 1.5979 0.0000
vt -1.1771 1.6984 0.0000
vt -1.2002 1.6984 0.0000
vt -1.2002 1.6177 0.0000
vt -1.1771 1.6177 0.0000
vt -1.1771 1.7662 0.0000
vt -1.2002 1.7662 0.0000
vt 1.1771 1.4847 0.0000
vt 1.2002 1.4847 0.0000
vt 1.2002 1.5170 0.0000
vt 1.1771 1.5170 0.0000
vt 1.1771 1.6507 0.0000
vt 1.2002 1.6507 0.0000
vt 1.2002 1.7610 0.0000
vt 1.1771 1.7610 0.0000
vt 1.1771 1.7789 0.0000
vt 1.2002 1.7789 0.0000
vt 1.2002 1.7915 0.0000
vt 1.1771 1.7915 0.0000
vt 1.1771 1.6127 0.0000
vt 1.2002 1.6127 0.0000
vt 1.2002 1.6984 0.0000
vt 1.1771 1.6984 0.0000
vt 1.1771 1.8608 0.0000
vt 1.2002 1.8608 0.0000
vt 1.2002 1.9462 0.0000
vt 1.1771 1.9462 0.0000
vt 1.1771 1.7675 0.0000
vt 1.2002 1.7675 0.0000
vt 1.2002 1.8165 0.0000
vt 1.1771 1.8165 0.0000
vt 1.1771 0.8782 0.0000
vt 1.2002 0.8782 0.0000
vt -0.5521 1.7124 0.0000
vt -0.5521 1.7368 0.0000
vt -0.5637 1.7368 0.0000
vt -0.5521 1.7001 0.0000
vt -0.5521 1.6879 0.0000
vt -0.5637 1.6943 0.0000
vt -0.5986 1.6516 0.0000
vt -0.6101 1.6581 0.0000
vt -0.5986 1.6027 0.0000
vt -0.6101 1.6057 0.0000
vt -0.6725 1.4983 0.0000
vt -0.6725 1.5176 0.0000
vt -0.5291 1.7001 0.0000
vt -0.5291 1.7124 0.0000
vt 0.5291 1.7124 0.0000
vt 0.5291 1.7001 0.0000
vt 0.5521 1.7001 0.0000
vt 0.5521 1.7124 0.0000
vt 0.5637 1.6943 0.0000
vt 0.5986 1.6516 0.0000
vt 0.5521 1.6879 0.0000
vt 0.6101 1.6581 0.0000
vt 0.6101 1.6057 0.0000
vt 0.5986 1.6027 0.0000
vt 0.6725 1.4983 0.0000
vt 0.6725 1.5176 0.0000
vt 0.5521 1.7368 0.0000
vt 0.5637 1.7368 0.0000
vt -1.2002 1.4983 0.0000
vt -1.1771 1.4983 0.0000
vt -1.1771 1.5176 0.0000
vt -1.2002 1.5176 0.0000
vt -1.2002 0.7841 0.0000
vt -1.1771 0.7841 0.0000
vt -1.1771 0.8943 0.0000
vt -1.2002 0.8943 0.0000
vt -1.2002 1.6057 0.0000
vt -1.1771 1.6057 0.0000
vt -1.1771 1.6581 0.0000
vt -1.2002 1.6581 0.0000
vt -1.2002 0.4581 0.0000
vt -1.1771 0.4581 0.0000
vt -1.1771 0.5193 0.0000
vt -1.2002 0.5193 0.0000
vt -1.2002 1.6943 0.0000
vt -1.1771 1.6943 0.0000
vt -1.1771 1.7368 0.0000
vt -1.2002 1.7368 0.0000
vt 1.1771 0.5987 0.0000
vt 1.1771 0.5865 0.0000
vt 1.2002 0.5865 0.0000
vt 1.2002 0.5987 0.0000
vt 1.1771 1.7124 0.0000
vt 1.2002 1.7124 0.0000
vt 1.2002 1.7368 0.0000
vt 1.1771 1.7368 0.0000
vt 1.1771 0.5620 0.0000
vt 1.2002 0.5620 0.0000
vt 1.1771 1.7001 0.0000
vt 1.2002 1.7001 0.0000
vt -1.1771 0.5620 0.0000
vt -1.1771 0.5865 0.0000
vt -1.2002 0.5865 0.0000
vt -1.2002 0.5620 0.0000
vt 1.1771 1.6879 0.0000
vt 1.2002 1.6879 0.0000
vt 1.1771 0.5254 0.0000
vt 1.1771 0.4641 0.0000
vt 1.2002 0.4641 0.0000
vt 1.2002 0.5254 0.0000
vt 1.1771 1.6027 0.0000
vt 1.2002 1.6027 0.0000
vt 1.1771 0.7686 0.0000
vt 1.2002 0.7686 0.0000
vt 1.2002 0.8992 0.0000
vt 1.1771 0.8992 0.0000
# 440 texture coords

g Layer0_001
usemtl wire_229166215
s off
f 1/1/1 2/2/1 3/3/1 4/4/1 
f 5/5/2 6/6/2 7/7/2 8/8/2 
f 1/9/3 6/10/3 5/11/3 2/12/3 
f 3/13/4 2/14/4 5/15/4 8/16/4 
f 7/17/5 4/18/5 3/19/5 8/20/5 
f 1/21/6 4/22/6 7/23/6 6/24/6 
f 9/25/5 10/26/5 11/27/5 12/28/5 
f 11/29/7 10/30/7 13/31/7 14/32/7 
f 15/33/8 16/34/8 17/35/8 18/36/8 
f 18/37/2 17/38/2 19/39/2 20/40/2 
f 19/41/9 21/42/9 22/43/9 20/44/9 
f 22/45/10 21/46/10 23/47/10 24/48/10 
f 23/49/11 25/50/11 26/51/11 24/52/11 
f 27/53/12 28/54/12 26/55/12 25/56/12 
f 29/57/13 30/58/13 31/59/13 32/60/13 
f 31/61/14 30/62/14 33/63/14 34/64/14 
f 34/65/15 33/66/15 9/67/15 12/68/15 
f 35/69/5 36/70/5 37/71/5 38/72/5 
f 36/73/16 39/74/16 40/75/16 37/76/16 
f 13/77/5 41/78/5 42/79/5 14/80/5 
f 43/81/17 44/82/17 42/83/17 41/84/17 
f 44/85/18 43/86/18 45/87/18 46/88/18 
f 45/89/5 47/90/5 48/91/5 46/92/5 
f 49/93/19 50/94/19 51/95/19 52/96/19 
f 52/97/20 51/98/20 48/99/20 47/100/20 
f 50/101/21 49/102/21 53/103/21 54/104/21 
f 55/105/1 56/106/1 54/107/1 53/108/1 
f 55/109/22 57/110/22 58/111/22 56/112/22 
f 57/113/23 59/114/23 60/115/23 58/116/23 
f 27/117/5 61/118/5 62/119/5 28/120/5 
f 61/121/24 63/122/24 64/123/24 62/124/24 
f 64/125/25 63/126/25 65/127/25 66/128/25 
f 66/129/7 65/130/7 67/131/7 68/132/7 
f 67/133/26 69/134/26 70/135/26 68/136/26 
f 40/137/7 39/138/7 71/139/7 72/140/7 
f 72/141/27 71/142/27 73/143/27 74/144/27 
f 73/145/3 75/146/3 76/147/3 74/148/3 
f 76/149/2 75/150/2 77/151/2 78/152/2 
f 77/153/5 29/70/5 32/71/5 78/154/5 
f 59/155/3 79/145/3 80/148/3 60/156/3 
f 81/157/28 82/158/28 80/159/28 79/160/28 
f 83/161/1 84/162/1 82/163/1 81/164/1 
f 69/165/3 85/166/3 86/167/3 70/168/3 
f 86/169/2 85/170/2 35/171/2 38/172/2 
f 87/173/29 88/174/29 89/175/29 90/176/29 
f 90/177/30 89/178/30 16/179/30 15/180/30 
f 83/146/3 91/181/3 92/182/3 84/147/3 
f 92/183/2 91/184/2 93/185/2 94/186/2 
f 93/181/3 95/187/3 96/188/3 94/182/3 
f 96/186/2 95/185/2 97/189/2 98/190/2 
f 97/191/5 88/192/5 87/193/5 98/194/5 
f 52/195/6 47/196/6 45/197/6 43/198/6 
f 52/195/6 43/198/6 65/199/6 63/200/6 
f 49/201/6 52/195/6 63/200/6 57/202/6 
f 49/201/6 57/202/6 55/203/6 53/204/6 
f 57/202/6 63/200/6 61/205/6 59/206/6 
f 59/206/6 61/205/6 27/207/6 79/208/6 
f 81/209/6 79/208/6 27/207/6 89/210/6 
f 89/210/6 27/207/6 25/211/6 16/212/6 
f 21/213/6 16/212/6 25/211/6 23/214/6 
f 17/215/6 16/212/6 21/213/6 19/216/6 
f 81/209/6 89/210/6 88/217/6 83/218/6 
f 91/219/6 83/218/6 88/217/6 93/220/6 
f 93/220/6 88/217/6 97/221/6 95/222/6 
f 65/199/6 43/198/6 41/223/6 39/224/6 
f 10/225/6 39/224/6 41/223/6 13/226/6 
f 71/227/6 39/224/6 10/225/6 9/228/6 
f 73/229/6 71/227/6 9/228/6 29/230/6 
f 29/230/6 9/228/6 33/231/6 30/232/6 
f 75/233/6 73/229/6 29/230/6 77/234/6 
f 67/235/6 65/199/6 39/224/6 36/236/6 
f 69/237/6 67/235/6 36/236/6 35/238/6 
f 69/237/6 35/238/6 85/239/6 
f 40/240/4 66/241/4 68/242/4 37/243/4 
f 37/243/4 68/242/4 70/244/4 86/245/4 
f 37/243/4 86/245/4 38/246/4 
f 66/241/4 40/240/4 42/247/4 44/248/4 
f 66/241/4 44/248/4 51/249/4 50/250/4 
f 64/251/4 66/241/4 50/250/4 58/252/4 
f 58/252/4 50/250/4 54/253/4 56/254/4 
f 64/251/4 58/252/4 60/255/4 62/256/4 
f 28/257/4 62/256/4 60/255/4 80/258/4 
f 28/257/4 80/258/4 82/259/4 90/260/4 
f 87/261/4 90/260/4 82/259/4 92/262/4 
f 92/262/4 82/259/4 84/263/4 
f 87/261/4 92/262/4 94/264/4 96/265/4 
f 87/261/4 96/265/4 98/266/4 
f 26/267/4 28/257/4 90/260/4 15/268/4 
f 22/269/4 26/267/4 15/268/4 18/270/4 
f 22/269/4 18/270/4 20/271/4 
f 26/267/4 22/269/4 24/272/4 
f 51/249/4 44/248/4 46/273/4 48/274/4 
f 11/275/4 42/247/4 40/240/4 72/276/4 
f 12/277/4 11/275/4 72/276/4 74/278/4 
f 32/279/4 12/277/4 74/278/4 76/280/4 
f 32/279/4 76/280/4 78/281/4 
f 34/282/4 12/277/4 32/279/4 31/283/4 
f 14/284/4 42/247/4 11/275/4 
f 99/285/3 100/286/3 101/287/3 102/288/3 
f 102/288/3 101/287/3 103/289/3 104/290/3 
f 104/290/3 103/289/3 105/291/3 
f 99/285/3 102/288/3 106/292/3 107/293/3 
f 108/294/3 107/293/3 106/292/3 109/295/3 
f 110/296/3 108/294/3 109/295/3 111/297/3 
f 110/296/3 111/297/3 112/298/3 
f 113/299/5 114/300/5 115/301/5 116/302/5 
f 114/300/5 113/299/5 117/303/5 118/304/5 
f 114/300/5 118/304/5 119/305/5 120/306/5 
f 120/306/5 119/305/5 121/307/5 122/308/5 
f 122/308/5 121/307/5 123/309/5 124/310/5 
f 122/308/5 124/310/5 125/311/5 126/312/5 
f 113/313/4 103/314/4 101/315/4 117/316/4 
f 105/317/2 103/318/2 113/319/2 116/320/2 
f 115/321/4 104/322/4 105/314/4 116/313/4 
f 102/323/1 104/324/1 115/325/1 114/326/1 
f 120/327/31 106/328/31 102/329/31 114/330/31 
f 122/331/4 109/332/4 106/333/4 120/334/4 
f 126/335/32 111/336/32 109/337/32 122/338/32 
f 111/339/6 126/340/6 125/341/6 112/342/6 
f 112/343/33 125/344/33 124/345/33 110/346/33 
f 110/347/34 124/348/34 123/349/34 108/350/34 
f 108/351/6 123/352/6 121/353/6 107/354/6 
f 107/355/34 121/356/34 119/357/34 99/358/34 
f 99/359/6 119/360/6 118/361/6 100/362/6 
f 101/318/2 100/363/2 118/364/2 117/319/2 
f 127/365/3 128/366/3 129/367/3 130/368/3 
f 131/369/3 130/368/3 129/367/3 132/370/3 
f 133/371/3 131/369/3 132/370/3 134/372/3 
f 135/373/3 133/371/3 134/372/3 136/374/3 
f 137/375/3 135/373/3 136/374/3 138/376/3 
f 127/365/3 130/368/3 139/377/3 140/378/3 
f 141/379/5 142/380/5 143/381/5 144/382/5 
f 145/383/5 144/382/5 143/381/5 146/384/5 
f 146/384/5 143/381/5 147/385/5 
f 148/386/5 145/383/5 146/384/5 149/387/5 
f 149/387/5 146/384/5 150/388/5 151/389/5 
f 149/387/5 151/389/5 152/390/5 
f 153/391/5 144/382/5 145/383/5 154/392/5 
f 151/393/4 137/394/4 138/395/4 152/396/4 
f 152/397/35 138/398/35 136/399/35 149/400/35 
f 149/401/4 136/402/4 134/403/4 148/404/4 
f 148/405/36 134/406/36 132/407/36 145/408/36 
f 145/409/4 132/410/4 129/411/4 154/412/4 
f 129/413/2 128/414/2 153/415/2 154/416/2 
f 127/417/6 144/418/6 153/419/6 128/420/6 
f 127/414/2 140/421/2 141/422/2 144/415/2 
f 139/423/6 142/424/6 141/418/6 140/417/6 
f 139/425/1 130/426/1 143/427/1 142/428/1 
f 131/429/6 147/430/6 143/424/6 130/423/6 
f 131/431/37 133/432/37 146/433/37 147/434/37 
f 135/435/6 150/436/6 146/344/6 133/343/6 
f 137/437/38 151/438/38 150/439/38 135/440/38 
# 140 polygons - 12 triangles

